<?xml version="1.0" encoding="UTF-8" standalone="no"?>
<!DOCTYPE svg PUBLIC "-//W3C//DTD SVG 1.1//EN"
 "http://www.w3.org/Graphics/SVG/1.1/DTD/svg11.dtd">
<!-- Generated by graphviz version 2.50.0 (20211204.2007)
 -->
<!-- Title: Tree Pages: 1 -->
<svg width="788pt" height="552pt"
 viewBox="0.00 0.00 788.00 552.00" xmlns="http://www.w3.org/2000/svg" xmlns:xlink="http://www.w3.org/1999/xlink">
<g id="graph0" class="graph" transform="scale(1 1) rotate(0) translate(4 548)">
<title>Tree</title>
<polygon fill="white" stroke="transparent" points="-4,4 -4,-548 784,-548 784,4 -4,4"/>
<!-- 0 -->
<g id="node1" class="node">
<title>0</title>
<path fill="#f9e3d3" stroke="black" d="M575.5,-544C575.5,-544 416.5,-544 416.5,-544 410.5,-544 404.5,-538 404.5,-532 404.5,-532 404.5,-473 404.5,-473 404.5,-467 410.5,-461 416.5,-461 416.5,-461 575.5,-461 575.5,-461 581.5,-461 587.5,-467 587.5,-473 587.5,-473 587.5,-532 587.5,-532 587.5,-538 581.5,-544 575.5,-544"/>
<text text-anchor="start" x="412.5" y="-528.8" font-family="Helvetica,sans-Serif" font-size="14.00">total_day_minutes ≤ 71.325</text>
<text text-anchor="start" x="448.5" y="-513.8" font-family="Helvetica,sans-Serif" font-size="14.00">entropy = 0.989</text>
<text text-anchor="start" x="447.5" y="-498.8" font-family="Helvetica,sans-Serif" font-size="14.00">samples = 6500</text>
<text text-anchor="start" x="434" y="-483.8" font-family="Helvetica,sans-Serif" font-size="14.00">value = [3652, 2848]</text>
<text text-anchor="start" x="445" y="-468.8" font-family="Helvetica,sans-Serif" font-size="14.00">class = No churn</text>
</g>
<!-- 1 -->
<g id="node2" class="node">
<title>1</title>
<path fill="#f1bc95" stroke="black" d="M445,-425C445,-425 329,-425 329,-425 323,-425 317,-419 317,-413 317,-413 317,-354 317,-354 317,-348 323,-342 329,-342 329,-342 445,-342 445,-342 451,-342 457,-348 457,-354 457,-354 457,-413 457,-413 457,-419 451,-425 445,-425"/>
<text text-anchor="start" x="325" y="-409.8" font-family="Helvetica,sans-Serif" font-size="14.00">total_charge ≤ 0.004</text>
<text text-anchor="start" x="339.5" y="-394.8" font-family="Helvetica,sans-Serif" font-size="14.00">entropy = 0.901</text>
<text text-anchor="start" x="338.5" y="-379.8" font-family="Helvetica,sans-Serif" font-size="14.00">samples = 5228</text>
<text text-anchor="start" x="325" y="-364.8" font-family="Helvetica,sans-Serif" font-size="14.00">value = [3569, 1659]</text>
<text text-anchor="start" x="336" y="-349.8" font-family="Helvetica,sans-Serif" font-size="14.00">class = No churn</text>
</g>
<!-- 0&#45;&gt;1 -->
<g id="edge1" class="edge">
<title>0&#45;&gt;1</title>
<path fill="none" stroke="black" d="M458.18,-460.91C449.64,-451.74 440.5,-441.93 431.71,-432.49"/>
<polygon fill="black" stroke="black" points="434.13,-429.95 424.75,-425.02 429.01,-434.72 434.13,-429.95"/>
<text text-anchor="middle" x="423.87" y="-446.31" font-family="Helvetica,sans-Serif" font-size="14.00">True</text>
</g>
<!-- 12 -->
<g id="node13" class="node">
<title>12</title>
<path fill="#47a4e7" stroke="black" d="M723,-425C723,-425 487,-425 487,-425 481,-425 475,-419 475,-413 475,-413 475,-354 475,-354 475,-348 481,-342 487,-342 487,-342 723,-342 723,-342 729,-342 735,-348 735,-354 735,-354 735,-413 735,-413 735,-419 729,-425 723,-425"/>
<text text-anchor="start" x="483" y="-409.8" font-family="Helvetica,sans-Serif" font-size="14.00">number_customer_service_calls ≤ 0.965</text>
<text text-anchor="start" x="557.5" y="-394.8" font-family="Helvetica,sans-Serif" font-size="14.00">entropy = 0.348</text>
<text text-anchor="start" x="556.5" y="-379.8" font-family="Helvetica,sans-Serif" font-size="14.00">samples = 1272</text>
<text text-anchor="start" x="550.5" y="-364.8" font-family="Helvetica,sans-Serif" font-size="14.00">value = [83, 1189]</text>
<text text-anchor="start" x="563" y="-349.8" font-family="Helvetica,sans-Serif" font-size="14.00">class = Churn</text>
</g>
<!-- 0&#45;&gt;12 -->
<g id="edge12" class="edge">
<title>0&#45;&gt;12</title>
<path fill="none" stroke="black" d="M533.82,-460.91C542.36,-451.74 551.5,-441.93 560.29,-432.49"/>
<polygon fill="black" stroke="black" points="562.99,-434.72 567.25,-425.02 557.87,-429.95 562.99,-434.72"/>
<text text-anchor="middle" x="568.13" y="-446.31" font-family="Helvetica,sans-Serif" font-size="14.00">False</text>
</g>
<!-- 2 -->
<g id="node3" class="node">
<title>2</title>
<path fill="#eb9c64" stroke="black" d="M314.5,-306C314.5,-306 169.5,-306 169.5,-306 163.5,-306 157.5,-300 157.5,-294 157.5,-294 157.5,-235 157.5,-235 157.5,-229 163.5,-223 169.5,-223 169.5,-223 314.5,-223 314.5,-223 320.5,-223 326.5,-229 326.5,-235 326.5,-235 326.5,-294 326.5,-294 326.5,-300 320.5,-306 314.5,-306"/>
<text text-anchor="start" x="165.5" y="-290.8" font-family="Helvetica,sans-Serif" font-size="14.00">total_day_charge ≤ 3.001</text>
<text text-anchor="start" x="194.5" y="-275.8" font-family="Helvetica,sans-Serif" font-size="14.00">entropy = 0.677</text>
<text text-anchor="start" x="193.5" y="-260.8" font-family="Helvetica,sans-Serif" font-size="14.00">samples = 4075</text>
<text text-anchor="start" x="184" y="-245.8" font-family="Helvetica,sans-Serif" font-size="14.00">value = [3347, 728]</text>
<text text-anchor="start" x="191" y="-230.8" font-family="Helvetica,sans-Serif" font-size="14.00">class = No churn</text>
</g>
<!-- 1&#45;&gt;2 -->
<g id="edge2" class="edge">
<title>1&#45;&gt;2</title>
<path fill="none" stroke="black" d="M336.69,-341.91C324.88,-332.38 312.21,-322.15 300.09,-312.37"/>
<polygon fill="black" stroke="black" points="302.2,-309.58 292.22,-306.02 297.8,-315.02 302.2,-309.58"/>
</g>
<!-- 7 -->
<g id="node8" class="node">
<title>7</title>
<path fill="#68b4eb" stroke="black" d="M457.5,-306C457.5,-306 356.5,-306 356.5,-306 350.5,-306 344.5,-300 344.5,-294 344.5,-294 344.5,-235 344.5,-235 344.5,-229 350.5,-223 356.5,-223 356.5,-223 457.5,-223 457.5,-223 463.5,-223 469.5,-229 469.5,-235 469.5,-235 469.5,-294 469.5,-294 469.5,-300 463.5,-306 457.5,-306"/>
<text text-anchor="start" x="352.5" y="-290.8" font-family="Helvetica,sans-Serif" font-size="14.00">total_charge ≤ 1.0</text>
<text text-anchor="start" x="359.5" y="-275.8" font-family="Helvetica,sans-Serif" font-size="14.00">entropy = 0.707</text>
<text text-anchor="start" x="358.5" y="-260.8" font-family="Helvetica,sans-Serif" font-size="14.00">samples = 1153</text>
<text text-anchor="start" x="352.5" y="-245.8" font-family="Helvetica,sans-Serif" font-size="14.00">value = [222, 931]</text>
<text text-anchor="start" x="365" y="-230.8" font-family="Helvetica,sans-Serif" font-size="14.00">class = Churn</text>
</g>
<!-- 1&#45;&gt;7 -->
<g id="edge7" class="edge">
<title>1&#45;&gt;7</title>
<path fill="none" stroke="black" d="M393.94,-341.91C395.37,-333.56 396.89,-324.67 398.36,-316.02"/>
<polygon fill="black" stroke="black" points="401.84,-316.47 400.07,-306.02 394.94,-315.29 401.84,-316.47"/>
</g>
<!-- 3 -->
<g id="node4" class="node">
<title>3</title>
<path fill="#e78c4a" stroke="black" d="M120,-179.5C120,-179.5 12,-179.5 12,-179.5 6,-179.5 0,-173.5 0,-167.5 0,-167.5 0,-123.5 0,-123.5 0,-117.5 6,-111.5 12,-111.5 12,-111.5 120,-111.5 120,-111.5 126,-111.5 132,-117.5 132,-123.5 132,-123.5 132,-167.5 132,-167.5 132,-173.5 126,-179.5 120,-179.5"/>
<text text-anchor="start" x="18.5" y="-164.3" font-family="Helvetica,sans-Serif" font-size="14.00">entropy = 0.394</text>
<text text-anchor="start" x="17.5" y="-149.3" font-family="Helvetica,sans-Serif" font-size="14.00">samples = 3465</text>
<text text-anchor="start" x="8" y="-134.3" font-family="Helvetica,sans-Serif" font-size="14.00">value = [3196, 269]</text>
<text text-anchor="start" x="15" y="-119.3" font-family="Helvetica,sans-Serif" font-size="14.00">class = No churn</text>
</g>
<!-- 2&#45;&gt;3 -->
<g id="edge3" class="edge">
<title>2&#45;&gt;3</title>
<path fill="none" stroke="black" d="M180.94,-222.91C162.68,-210.77 142.71,-197.49 124.61,-185.46"/>
<polygon fill="black" stroke="black" points="126.16,-182.29 115.89,-179.67 122.28,-188.12 126.16,-182.29"/>
</g>
<!-- 4 -->
<g id="node5" class="node">
<title>4</title>
<path fill="#7abdee" stroke="black" d="M321.5,-187C321.5,-187 162.5,-187 162.5,-187 156.5,-187 150.5,-181 150.5,-175 150.5,-175 150.5,-116 150.5,-116 150.5,-110 156.5,-104 162.5,-104 162.5,-104 321.5,-104 321.5,-104 327.5,-104 333.5,-110 333.5,-116 333.5,-116 333.5,-175 333.5,-175 333.5,-181 327.5,-187 321.5,-187"/>
<text text-anchor="start" x="158.5" y="-171.8" font-family="Helvetica,sans-Serif" font-size="14.00">total_day_minutes ≤ 55.086</text>
<text text-anchor="start" x="194.5" y="-156.8" font-family="Helvetica,sans-Serif" font-size="14.00">entropy = 0.807</text>
<text text-anchor="start" x="197" y="-141.8" font-family="Helvetica,sans-Serif" font-size="14.00">samples = 610</text>
<text text-anchor="start" x="187.5" y="-126.8" font-family="Helvetica,sans-Serif" font-size="14.00">value = [151, 459]</text>
<text text-anchor="start" x="200" y="-111.8" font-family="Helvetica,sans-Serif" font-size="14.00">class = Churn</text>
</g>
<!-- 2&#45;&gt;4 -->
<g id="edge4" class="edge">
<title>2&#45;&gt;4</title>
<path fill="none" stroke="black" d="M242,-222.91C242,-214.65 242,-205.86 242,-197.3"/>
<polygon fill="black" stroke="black" points="245.5,-197.02 242,-187.02 238.5,-197.02 245.5,-197.02"/>
</g>
<!-- 5 -->
<g id="node6" class="node">
<title>5</title>
<path fill="#3e9fe6" stroke="black" d="M241.5,-68C241.5,-68 148.5,-68 148.5,-68 142.5,-68 136.5,-62 136.5,-56 136.5,-56 136.5,-12 136.5,-12 136.5,-6 142.5,0 148.5,0 148.5,0 241.5,0 241.5,0 247.5,0 253.5,-6 253.5,-12 253.5,-12 253.5,-56 253.5,-56 253.5,-62 247.5,-68 241.5,-68"/>
<text text-anchor="start" x="147.5" y="-52.8" font-family="Helvetica,sans-Serif" font-size="14.00">entropy = 0.162</text>
<text text-anchor="start" x="150" y="-37.8" font-family="Helvetica,sans-Serif" font-size="14.00">samples = 464</text>
<text text-anchor="start" x="144.5" y="-22.8" font-family="Helvetica,sans-Serif" font-size="14.00">value = [11, 453]</text>
<text text-anchor="start" x="153" y="-7.8" font-family="Helvetica,sans-Serif" font-size="14.00">class = Churn</text>
</g>
<!-- 4&#45;&gt;5 -->
<g id="edge5" class="edge">
<title>4&#45;&gt;5</title>
<path fill="none" stroke="black" d="M224.5,-103.73C220.86,-95.24 217.01,-86.28 213.34,-77.73"/>
<polygon fill="black" stroke="black" points="216.45,-76.11 209.29,-68.3 210.02,-78.87 216.45,-76.11"/>
</g>
<!-- 6 -->
<g id="node7" class="node">
<title>6</title>
<path fill="#e68641" stroke="black" d="M378,-68C378,-68 284,-68 284,-68 278,-68 272,-62 272,-56 272,-56 272,-12 272,-12 272,-6 278,0 284,0 284,0 378,0 378,0 384,0 390,-6 390,-12 390,-12 390,-56 390,-56 390,-62 384,-68 378,-68"/>
<text text-anchor="start" x="283.5" y="-52.8" font-family="Helvetica,sans-Serif" font-size="14.00">entropy = 0.247</text>
<text text-anchor="start" x="286" y="-37.8" font-family="Helvetica,sans-Serif" font-size="14.00">samples = 146</text>
<text text-anchor="start" x="284" y="-22.8" font-family="Helvetica,sans-Serif" font-size="14.00">value = [140, 6]</text>
<text text-anchor="start" x="280" y="-7.8" font-family="Helvetica,sans-Serif" font-size="14.00">class = No churn</text>
</g>
<!-- 4&#45;&gt;6 -->
<g id="edge6" class="edge">
<title>4&#45;&gt;6</title>
<path fill="none" stroke="black" d="M275.14,-103.73C282.48,-94.7 290.26,-85.12 297.61,-76.08"/>
<polygon fill="black" stroke="black" points="300.34,-78.27 303.93,-68.3 294.91,-73.85 300.34,-78.27"/>
</g>
<!-- 8 -->
<g id="node9" class="node">
<title>8</title>
<path fill="#399de5" stroke="black" d="M450,-179.5C450,-179.5 364,-179.5 364,-179.5 358,-179.5 352,-173.5 352,-167.5 352,-167.5 352,-123.5 352,-123.5 352,-117.5 358,-111.5 364,-111.5 364,-111.5 450,-111.5 450,-111.5 456,-111.5 462,-117.5 462,-123.5 462,-123.5 462,-167.5 462,-167.5 462,-173.5 456,-179.5 450,-179.5"/>
<text text-anchor="start" x="367" y="-164.3" font-family="Helvetica,sans-Serif" font-size="14.00">entropy = 0.0</text>
<text text-anchor="start" x="362" y="-149.3" font-family="Helvetica,sans-Serif" font-size="14.00">samples = 612</text>
<text text-anchor="start" x="360" y="-134.3" font-family="Helvetica,sans-Serif" font-size="14.00">value = [0, 612]</text>
<text text-anchor="start" x="365" y="-119.3" font-family="Helvetica,sans-Serif" font-size="14.00">class = Churn</text>
</g>
<!-- 7&#45;&gt;8 -->
<g id="edge8" class="edge">
<title>7&#45;&gt;8</title>
<path fill="none" stroke="black" d="M407,-222.91C407,-212.2 407,-200.62 407,-189.78"/>
<polygon fill="black" stroke="black" points="410.5,-189.67 407,-179.67 403.5,-189.67 410.5,-189.67"/>
</g>
<!-- 9 -->
<g id="node10" class="node">
<title>9</title>
<path fill="#c3e1f7" stroke="black" d="M689.5,-187C689.5,-187 492.5,-187 492.5,-187 486.5,-187 480.5,-181 480.5,-175 480.5,-175 480.5,-116 480.5,-116 480.5,-110 486.5,-104 492.5,-104 492.5,-104 689.5,-104 689.5,-104 695.5,-104 701.5,-110 701.5,-116 701.5,-116 701.5,-175 701.5,-175 701.5,-181 695.5,-187 689.5,-187"/>
<text text-anchor="start" x="488.5" y="-171.8" font-family="Helvetica,sans-Serif" font-size="14.00">number_vmail_messages ≤ 2.997</text>
<text text-anchor="start" x="543.5" y="-156.8" font-family="Helvetica,sans-Serif" font-size="14.00">entropy = 0.977</text>
<text text-anchor="start" x="546" y="-141.8" font-family="Helvetica,sans-Serif" font-size="14.00">samples = 541</text>
<text text-anchor="start" x="536.5" y="-126.8" font-family="Helvetica,sans-Serif" font-size="14.00">value = [222, 319]</text>
<text text-anchor="start" x="549" y="-111.8" font-family="Helvetica,sans-Serif" font-size="14.00">class = Churn</text>
</g>
<!-- 7&#45;&gt;9 -->
<g id="edge9" class="edge">
<title>7&#45;&gt;9</title>
<path fill="none" stroke="black" d="M469.55,-223.73C485.2,-213.78 502.12,-203.02 518.21,-192.78"/>
<polygon fill="black" stroke="black" points="520.5,-195.48 527.06,-187.16 516.74,-189.57 520.5,-195.48"/>
</g>
<!-- 10 -->
<g id="node11" class="node">
<title>10</title>
<path fill="#399de5" stroke="black" d="M546,-68C546,-68 460,-68 460,-68 454,-68 448,-62 448,-56 448,-56 448,-12 448,-12 448,-6 454,0 460,0 460,0 546,0 546,0 552,0 558,-6 558,-12 558,-12 558,-56 558,-56 558,-62 552,-68 546,-68"/>
<text text-anchor="start" x="463" y="-52.8" font-family="Helvetica,sans-Serif" font-size="14.00">entropy = 0.0</text>
<text text-anchor="start" x="458" y="-37.8" font-family="Helvetica,sans-Serif" font-size="14.00">samples = 154</text>
<text text-anchor="start" x="456" y="-22.8" font-family="Helvetica,sans-Serif" font-size="14.00">value = [0, 154]</text>
<text text-anchor="start" x="461" y="-7.8" font-family="Helvetica,sans-Serif" font-size="14.00">class = Churn</text>
</g>
<!-- 9&#45;&gt;10 -->
<g id="edge10" class="edge">
<title>9&#45;&gt;10</title>
<path fill="none" stroke="black" d="M558.23,-103.73C551.05,-94.79 543.44,-85.32 536.24,-76.36"/>
<polygon fill="black" stroke="black" points="538.75,-73.9 529.76,-68.3 533.3,-78.29 538.75,-73.9"/>
</g>
<!-- 11 -->
<g id="node12" class="node">
<title>11</title>
<path fill="#f8dfcc" stroke="black" d="M689.5,-68C689.5,-68 588.5,-68 588.5,-68 582.5,-68 576.5,-62 576.5,-56 576.5,-56 576.5,-12 576.5,-12 576.5,-6 582.5,0 588.5,0 588.5,0 689.5,0 689.5,0 695.5,0 701.5,-6 701.5,-12 701.5,-12 701.5,-56 701.5,-56 701.5,-62 695.5,-68 689.5,-68"/>
<text text-anchor="start" x="591.5" y="-52.8" font-family="Helvetica,sans-Serif" font-size="14.00">entropy = 0.984</text>
<text text-anchor="start" x="594" y="-37.8" font-family="Helvetica,sans-Serif" font-size="14.00">samples = 387</text>
<text text-anchor="start" x="584.5" y="-22.8" font-family="Helvetica,sans-Serif" font-size="14.00">value = [222, 165]</text>
<text text-anchor="start" x="588" y="-7.8" font-family="Helvetica,sans-Serif" font-size="14.00">class = No churn</text>
</g>
<!-- 9&#45;&gt;11 -->
<g id="edge11" class="edge">
<title>9&#45;&gt;11</title>
<path fill="none" stroke="black" d="M608.87,-103.73C612.59,-95.24 616.52,-86.28 620.27,-77.73"/>
<polygon fill="black" stroke="black" points="623.59,-78.86 624.4,-68.3 617.18,-76.05 623.59,-78.86"/>
</g>
<!-- 13 -->
<g id="node14" class="node">
<title>13</title>
<path fill="#3a9ee5" stroke="black" d="M631.5,-298.5C631.5,-298.5 538.5,-298.5 538.5,-298.5 532.5,-298.5 526.5,-292.5 526.5,-286.5 526.5,-286.5 526.5,-242.5 526.5,-242.5 526.5,-236.5 532.5,-230.5 538.5,-230.5 538.5,-230.5 631.5,-230.5 631.5,-230.5 637.5,-230.5 643.5,-236.5 643.5,-242.5 643.5,-242.5 643.5,-286.5 643.5,-286.5 643.5,-292.5 637.5,-298.5 631.5,-298.5"/>
<text text-anchor="start" x="537.5" y="-283.3" font-family="Helvetica,sans-Serif" font-size="14.00">entropy = 0.059</text>
<text text-anchor="start" x="536.5" y="-268.3" font-family="Helvetica,sans-Serif" font-size="14.00">samples = 1181</text>
<text text-anchor="start" x="534.5" y="-253.3" font-family="Helvetica,sans-Serif" font-size="14.00">value = [8, 1173]</text>
<text text-anchor="start" x="543" y="-238.3" font-family="Helvetica,sans-Serif" font-size="14.00">class = Churn</text>
</g>
<!-- 12&#45;&gt;13 -->
<g id="edge13" class="edge">
<title>12&#45;&gt;13</title>
<path fill="none" stroke="black" d="M598.06,-341.91C596.23,-331.2 594.25,-319.62 592.4,-308.78"/>
<polygon fill="black" stroke="black" points="595.8,-307.93 590.67,-298.67 588.9,-309.11 595.8,-307.93"/>
</g>
<!-- 14 -->
<g id="node15" class="node">
<title>14</title>
<path fill="#eb9c63" stroke="black" d="M768,-298.5C768,-298.5 674,-298.5 674,-298.5 668,-298.5 662,-292.5 662,-286.5 662,-286.5 662,-242.5 662,-242.5 662,-236.5 668,-230.5 674,-230.5 674,-230.5 768,-230.5 768,-230.5 774,-230.5 780,-236.5 780,-242.5 780,-242.5 780,-286.5 780,-286.5 780,-292.5 774,-298.5 768,-298.5"/>
<text text-anchor="start" x="673.5" y="-283.3" font-family="Helvetica,sans-Serif" font-size="14.00">entropy = 0.671</text>
<text text-anchor="start" x="680" y="-268.3" font-family="Helvetica,sans-Serif" font-size="14.00">samples = 91</text>
<text text-anchor="start" x="674" y="-253.3" font-family="Helvetica,sans-Serif" font-size="14.00">value = [75, 16]</text>
<text text-anchor="start" x="670" y="-238.3" font-family="Helvetica,sans-Serif" font-size="14.00">class = No churn</text>
</g>
<!-- 12&#45;&gt;14 -->
<g id="edge14" class="edge">
<title>12&#45;&gt;14</title>
<path fill="none" stroke="black" d="M645.25,-341.91C656.84,-330.21 669.49,-317.46 681.06,-305.78"/>
<polygon fill="black" stroke="black" points="683.56,-308.23 688.12,-298.67 678.59,-303.3 683.56,-308.23"/>
</g>
</g>
</svg>
